<svg width="1920" height="1080" viewBox="0 0 1920 1080" xmlns="http://www.w3.org/2000/svg"><path d="M1347.8977172212428,563.9999999999999C1342.731050554576,614.7558888403175,1331.3898773912902,649.8451747897866,1300.0460096199538,699.2641435254926C1268.7021418486174,748.6831122611986,1202.1419696805922,828.7044956685234,1159.8345105932242,860.5138124142356C1117.5270515058562,892.3231291599479,1097.8364789681086,905.5021254182881,1046.201255095746,890.120043999766C994.5660312233836,874.737962581244,909.1719649690341,777.7961650963481,850.0231673590492,768.2213239031034C790.8743697490644,758.6464827098588,728.1628609181403,849.3777840643114,691.3084694358372,832.6709968402984C654.4540779535341,815.9642096162853,644.798760293665,727.8829957170469,628.8968184652306,667.9806005590249C612.9948766367961,608.0782054010028,577.5364153500334,508.04491372168803,595.8968184652305,473.25662589216597C614.2572215804275,438.4683380626439,691.5381790074432,505.8988263984254,739.0592371564129,459.2508735818926C786.5802953053826,412.60292076535984,833.0384906090001,235.12169255441327,881.023167359049,193.36890899296947C929.007844109098,151.61612543152566,972.1337788791841,180.3391129485641,1026.9672976567065,208.73417221322973C1081.8008164342289,237.12923147789536,1159.3444946969755,332.7401582025704,1210.0242800241833,363.7392645809632C1260.7040653513911,394.738370959356,1308.0671034204436,361.3520212470805,1331.0460096199536,394.7288104835866C1354.0249158194636,428.1055997200927,1353.0643838879096,513.2441111596822,1347.8977172212428,563.9999999999999C1342.731050554576,614.7558888403175,1331.3898773912902,649.8451747897866,1300.0460096199538,699.2641435254926" fill="#0a2b1e"/></svg>